<svg width="47" height="47" viewBox="0 0 47 47" fill="none" xmlns="http://www.w3.org/2000/svg">
<rect x="1.32715" y="0.735352" width="45" height="45" rx="11.5" fill="#F8F8FA" stroke="#E2E2E2"/>
<path d="M26.0056 30.7409C25.9461 30.6065 25.9326 30.4107 25.9825 30.2725C26.3685 29.1781 26.764 28.0894 27.1749 27.0027C27.6126 25.8488 27.9525 24.6872 27.7816 23.4257C27.5877 21.9934 27.0001 20.7531 25.9422 19.7739C25.4257 19.2977 24.8209 18.9233 24.2219 18.4779C24.268 18.3512 24.3429 18.1534 24.4158 17.9557C24.5349 17.6293 24.4427 17.3739 24.1681 17.2721C23.8859 17.1685 23.6497 17.2856 23.5173 17.6024C23.4309 17.8059 23.3541 18.0113 23.2696 18.2225C22.4709 18.0267 21.6817 17.948 20.8811 18.0632C18.4945 18.4049 16.7723 19.6568 15.8411 21.8897C15.2709 23.2625 14.8005 24.6776 14.2936 26.0753C14.2321 26.2481 14.1342 26.3499 13.9672 26.4248C13.1185 26.8049 12.2757 27.1966 11.427 27.5825C11.2005 27.6843 11.0315 27.8283 11.0373 28.0971C11.043 28.3755 11.2389 28.4869 11.4693 28.5694C13.0533 29.1377 14.6334 29.7118 16.2213 30.2686C16.4593 30.3531 16.5419 30.4472 16.5285 30.7102C16.4478 32.4728 18.1009 33.7861 19.8117 33.3387C20.5048 33.1582 21.0328 32.7531 21.4302 32.1502C21.5128 32.179 21.5877 32.2059 21.6625 32.2309C23.2715 32.8069 24.8805 33.3829 26.4894 33.9627C26.7313 34.0491 26.9541 34.0856 27.1537 33.8801C27.3611 33.6651 27.2747 33.4443 27.1672 33.2177C26.7717 32.3979 26.3781 31.5742 26.0056 30.7409ZM18.723 32.4037C17.9569 32.1829 17.4501 31.4955 17.5038 30.7121C18.5061 31.0693 19.4872 31.4206 20.4721 31.772C20.1918 32.3096 19.3873 32.5957 18.723 32.4037Z" fill="#BBBBBB"/>
<circle cx="30.6275" cy="17.6354" r="7.4" fill="#F67366" stroke="#F6F8FB" stroke-width="2"/>
</svg>
