<svg width="24" height="25" viewBox="0 0 24 25" fill="none" xmlns="http://www.w3.org/2000/svg">
<path d="M20.1525 18.0854C13.4025 18.0854 8.00254 12.6854 8.00254 5.93535C8.00254 3.83535 8.45254 1.88535 9.35254 0.235352C4.25254 1.58535 0.352539 6.38535 0.352539 12.0854C0.352539 18.8354 5.75254 24.2354 12.5025 24.2354C17.1525 24.2354 21.2025 21.5354 23.3025 17.6354C22.4025 17.9354 21.3525 18.0854 20.1525 18.0854ZM12.5025 22.7354C6.65254 22.7354 1.85254 17.9354 1.85254 12.0854C1.85254 8.33535 3.80254 5.03535 6.80254 3.08535C6.50254 3.98535 6.50254 4.88535 6.50254 5.93535C6.50254 13.4354 12.6525 19.5854 20.1525 19.7354C18.0525 21.5354 15.3525 22.7354 12.5025 22.7354Z" fill="#BBBBBB"/>
</svg>
