<svg width="38" height="38" viewBox="0 0 38 38" fill="none" xmlns="http://www.w3.org/2000/svg">
<path d="M32.5618 4.55732H32.5614H27.7913V2.42229C27.7913 2.05673 27.6461 1.70614 27.3876 1.44765C27.1291 1.18916 26.7785 1.04395 26.413 1.04395C26.0474 1.04395 25.6968 1.18916 25.4384 1.44765C25.1799 1.70614 25.0346 2.05673 25.0346 2.42229V4.55732H13.7378V2.42229C13.7378 2.05673 13.5926 1.70614 13.3341 1.44765C13.0756 1.18916 12.725 1.04395 12.3595 1.04395C11.9939 1.04395 11.6433 1.18916 11.3848 1.44765C11.1263 1.70614 10.9811 2.05673 10.9811 2.42229V4.55732L6.21106 4.55732L6.21046 4.55732C4.91373 4.55888 3.67056 5.07469 2.75363 5.99162C1.8367 6.90854 1.32089 8.15172 1.31934 9.44845V9.44905L1.31934 32.286L1.31934 32.2866C1.32089 33.5833 1.8367 34.8265 2.75363 35.7434C3.67056 36.6604 4.91373 37.1762 6.21046 37.1777H6.21106H32.5614H32.5618C33.8587 37.1767 35.1023 36.661 36.0193 35.744C36.9364 34.8269 37.4521 33.5834 37.4531 32.2864V32.286V9.44905V9.44865C37.4521 8.15171 36.9364 6.90818 36.0193 5.9911C35.1023 5.07403 33.8587 4.55836 32.5618 4.55732ZM34.6964 32.286C34.6964 32.8523 34.4715 33.3953 34.0711 33.7957C33.6707 34.1961 33.1276 34.421 32.5614 34.421H6.21106C5.64481 34.421 5.10176 34.1961 4.70136 33.7957C4.30097 33.3953 4.07603 32.8523 4.07603 32.286V17.8541H34.6964V32.286ZM34.6964 15.0975H4.07603V9.44905C4.07603 8.27022 5.02958 7.31401 6.21106 7.31401H10.9811V9.44905C10.9811 9.81461 11.1263 10.1652 11.3848 10.4237C11.6433 10.6822 11.9939 10.8274 12.3595 10.8274C12.725 10.8274 13.0756 10.6822 13.3341 10.4237C13.5926 10.1652 13.7378 9.81461 13.7378 9.44905V7.31401H25.0346V9.44905C25.0346 9.81461 25.1799 10.1652 25.4384 10.4237C25.6968 10.6822 26.0474 10.8274 26.413 10.8274C26.7785 10.8274 27.1291 10.6822 27.3876 10.4237C27.6461 10.1652 27.7913 9.81461 27.7913 9.44905V7.31401H32.5614C33.1276 7.31401 33.6707 7.53895 34.0711 7.93935C34.4715 8.33975 34.6964 8.8828 34.6964 9.44905V15.0975Z" fill="#969AA8" stroke="#969AA8"/>
</svg>
