<svg width="41" height="41" viewBox="0 0 41 41" fill="none" xmlns="http://www.w3.org/2000/svg">
<ellipse cx="20.7012" cy="20.5288" rx="20.2432" ry="20" fill="#E88787"/>
<path d="M15.3039 14.6016L20.5674 19.865L25.8036 14.6288C25.9193 14.5057 26.0586 14.4072 26.2132 14.3393C26.3679 14.2713 26.5347 14.2353 26.7036 14.2334C27.0652 14.2334 27.4121 14.3771 27.6678 14.6328C27.9235 14.8885 28.0672 15.2353 28.0672 15.597C28.0703 15.7642 28.0393 15.9302 27.976 16.085C27.9127 16.2398 27.8184 16.38 27.699 16.497L22.3946 21.7332L27.699 27.0376C27.9237 27.2574 28.0555 27.5552 28.0672 27.8694C28.0672 28.231 27.9235 28.5778 27.6678 28.8336C27.4121 29.0893 27.0652 29.233 26.7036 29.233C26.5298 29.2402 26.3564 29.2112 26.1944 29.1478C26.0324 29.0844 25.8854 28.988 25.7627 28.8648L20.5674 23.6013L15.3175 28.8511C15.2023 28.9702 15.0647 29.0652 14.9126 29.1307C14.7604 29.1962 14.5968 29.231 14.4312 29.233C14.0696 29.233 13.7227 29.0893 13.467 28.8336C13.2113 28.5778 13.0676 28.231 13.0676 27.8694C13.0644 27.7022 13.0954 27.5361 13.1588 27.3814C13.2221 27.2266 13.3163 27.0864 13.4358 26.9694L18.7402 21.7332L13.4358 16.4288C13.211 16.2089 13.0792 15.9112 13.0676 15.597C13.0676 15.2353 13.2113 14.8885 13.467 14.6328C13.7227 14.3771 14.0696 14.2334 14.4312 14.2334C14.7585 14.2375 15.0721 14.3698 15.3039 14.6016Z" fill="white"/>
</svg>
