<svg width="33" height="25" viewBox="0 0 33 25" fill="none" xmlns="http://www.w3.org/2000/svg">
<path fill-rule="evenodd" clip-rule="evenodd" d="M15.4143 0.89148H15.309C11.9894 0.89146 9.47675 0.891445 7.50722 1.06923C5.98346 1.20493 4.74403 1.44576 3.73887 1.95225C3.60872 1.99812 3.48859 2.06502 3.38447 2.15103C3.20826 2.25615 3.03606 2.37083 2.87588 2.49888C1.74858 3.39719 1.22798 4.73893 0.997711 6.37309C0.773189 7.96649 0.7733 9.93785 0.773445 12.5193L0.773452 12.7186L0.773445 12.9179C0.7733 15.4993 0.773189 17.4707 0.997711 19.0641C1.22798 20.6983 1.74658 22.04 2.87588 22.9383C4.00518 23.8366 5.51492 24.1902 7.50722 24.368C9.4567 24.5439 11.9383 24.5439 15.2079 24.5438L15.4143 24.5438H17.6669L17.8735 24.5438C21.1449 24.5439 23.6246 24.5439 25.5761 24.368C27.5664 24.1902 29.0781 23.8366 30.2074 22.9383C31.3347 22.04 31.8553 20.6983 32.0856 19.0641C32.3101 17.4707 32.31 15.4993 32.3099 12.9179L32.3098 12.7186L32.3099 12.5193C32.31 9.93786 32.3101 7.96649 32.0856 6.37309C31.8553 4.73893 31.3347 3.39719 30.2074 2.49888C30.0612 2.38229 29.9071 2.27526 29.7489 2.17779C29.6227 2.0612 29.4686 1.9771 29.3004 1.92741C28.3032 1.4362 27.0758 1.20302 25.5761 1.06923C23.6046 0.891445 21.0939 0.89146 17.7723 0.89148H17.6669H15.4143ZM15.4142 3.0416H17.6668C21.0387 3.0416 23.5576 3.04733 25.3637 3.20979C25.8583 3.25566 26.2808 3.313 26.6652 3.3799C25.2275 4.50948 21.7495 7.23881 18.688 9.64131C17.4345 10.6256 15.6485 10.6256 14.395 9.64131C11.3335 7.23881 7.85549 4.50948 6.41783 3.3799C6.80027 3.313 7.22476 3.25566 7.71733 3.20979C9.52542 3.04733 12.0423 3.0416 15.4142 3.0416ZM7.93966 7.35886C6.07009 5.8914 4.52446 4.67821 4.11541 4.3566C3.67891 4.80575 3.40059 5.46133 3.23039 6.65971C3.03416 8.04732 3.02616 10.0389 3.02616 12.7185C3.02616 15.3982 3.03416 17.3917 3.23039 18.7773C3.42662 20.163 3.755 20.8396 4.31965 21.2888C4.8843 21.7379 5.91148 22.0648 7.71757 22.2272C9.52566 22.3897 12.0426 22.3954 15.4145 22.3954H17.667C21.0389 22.3954 23.5578 22.3897 25.3659 22.2272C27.172 22.0648 28.1992 21.7379 28.7639 21.2888C29.3285 20.8396 29.6569 20.163 29.8531 18.7773C30.0493 17.3917 30.0573 15.3982 30.0573 12.7185C30.0573 10.0389 30.0473 8.04732 29.8531 6.65971C29.6829 5.46133 29.4026 4.80575 28.9681 4.3566C28.5591 4.67816 27.0139 5.89098 25.1448 7.3581C23.5366 8.62045 21.6884 10.0711 20.1179 11.3042C18.0455 12.9307 15.038 12.9307 12.9656 11.3042C11.3954 10.0713 9.54769 8.62103 7.93966 7.35886Z" fill="#004AAD"/>
</svg>
