<svg width="101" height="97" viewBox="0 0 101 97" fill="none" xmlns="http://www.w3.org/2000/svg">
<path d="M32.3568 93.7711L25.5902 82.3377L12.7568 79.5377C11.5902 79.3044 10.6568 78.7016 9.95684 77.7294C9.25684 76.7572 8.98461 75.6877 9.14017 74.5211L10.4235 61.3377L1.6735 51.3044C0.895725 50.4488 0.506836 49.4377 0.506836 48.2711C0.506836 47.1044 0.895725 46.0933 1.6735 45.2377L10.4235 35.2044L9.14017 22.0211C8.98461 20.8544 9.25684 19.785 9.95684 18.8127C10.6568 17.8405 11.5902 17.2377 12.7568 17.0044L25.5902 14.2044L32.3568 2.77106C32.9791 1.75995 33.8346 1.07939 34.9235 0.729395C36.0124 0.379395 37.1013 0.437728 38.1902 0.904395L50.3235 6.03773L62.4568 0.904395C63.5457 0.437728 64.6346 0.379395 65.7235 0.729395C66.8124 1.07939 67.6679 1.75995 68.2902 2.77106L75.0568 14.2044L87.8902 17.0044C89.0568 17.2377 89.9902 17.8405 90.6902 18.8127C91.3902 19.785 91.6624 20.8544 91.5068 22.0211L90.2235 35.2044L98.9735 45.2377C99.7513 46.0933 100.14 47.1044 100.14 48.2711C100.14 49.4377 99.7513 50.4488 98.9735 51.3044L90.2235 61.3377L91.5068 74.5211C91.6624 75.6877 91.3902 76.7572 90.6902 77.7294C89.9902 78.7016 89.0568 79.3044 87.8902 79.5377L75.0568 82.3377L68.2902 93.7711C67.6679 94.7822 66.8124 95.4627 65.7235 95.8127C64.6346 96.1627 63.5457 96.1044 62.4568 95.6377L50.3235 90.5044L38.1902 95.6377C37.1013 96.1044 36.0124 96.1627 34.9235 95.8127C33.8346 95.4627 32.9791 94.7822 32.3568 93.7711ZM45.4235 51.5377L38.6568 44.8877C37.8013 44.0322 36.7318 43.6044 35.4485 43.6044C34.1652 43.6044 33.0568 44.0711 32.1235 45.0044C31.2679 45.8599 30.8402 46.9488 30.8402 48.2711C30.8402 49.5933 31.2679 50.6822 32.1235 51.5377L42.1568 61.5711C43.0902 62.5044 44.1791 62.9711 45.4235 62.9711C46.6679 62.9711 47.7568 62.5044 48.6902 61.5711L68.5235 41.7377C69.4568 40.8044 69.9041 39.7155 69.8652 38.4711C69.8263 37.2266 69.3791 36.1377 68.5235 35.2044C67.5902 34.2711 66.4818 33.785 65.1985 33.7461C63.9152 33.7072 62.8068 34.1544 61.8735 35.0877L45.4235 51.5377Z" fill="#14AE5C"/>
</svg>
