<svg width="101" height="97" viewBox="0 0 101 97" fill="none" xmlns="http://www.w3.org/2000/svg">
<path d="M32.5336 93.9791L25.7669 82.5457L12.9336 79.7457C11.7669 79.5124 10.8336 78.9096 10.1336 77.9374C9.43359 76.9652 9.16137 75.8957 9.31693 74.7291L10.6003 61.5457L1.85026 51.5124C1.07248 50.6568 0.683594 49.6457 0.683594 48.4791C0.683594 47.3124 1.07248 46.3013 1.85026 45.4457L10.6003 35.4124L9.31693 22.2291C9.16137 21.0624 9.43359 19.993 10.1336 19.0207C10.8336 18.0485 11.7669 17.4457 12.9336 17.2124L25.7669 14.4124L32.5336 2.97907C33.1558 1.96796 34.0114 1.2874 35.1003 0.937402C36.1891 0.587402 37.278 0.645736 38.3669 1.1124L50.5003 6.24574L62.6336 1.1124C63.7225 0.645736 64.8114 0.587402 65.9003 0.937402C66.9892 1.2874 67.8447 1.96796 68.4669 2.97907L75.2336 14.4124L88.0669 17.2124C89.2336 17.4457 90.1669 18.0485 90.8669 19.0207C91.5669 19.993 91.8391 21.0624 91.6836 22.2291L90.4003 35.4124L99.1503 45.4457C99.928 46.3013 100.317 47.3124 100.317 48.4791C100.317 49.6457 99.928 50.6568 99.1503 51.5124L90.4003 61.5457L91.6836 74.7291C91.8391 75.8957 91.5669 76.9652 90.8669 77.9374C90.1669 78.9096 89.2336 79.5124 88.0669 79.7457L75.2336 82.5457L68.4669 93.9791C67.8447 94.9902 66.9892 95.6707 65.9003 96.0207C64.8114 96.3707 63.7225 96.3124 62.6336 95.8457L50.5003 90.7124L38.3669 95.8457C37.278 96.3124 36.1891 96.3707 35.1003 96.0207C34.0114 95.6707 33.1558 94.9902 32.5336 93.9791ZM45.6003 51.7457L38.8336 45.0957C37.978 44.2402 36.9086 43.8124 35.6253 43.8124C34.3419 43.8124 33.2336 44.2791 32.3003 45.2124C31.4447 46.068 31.0169 47.1568 31.0169 48.4791C31.0169 49.8013 31.4447 50.8902 32.3003 51.7457L42.3336 61.7791C43.2669 62.7124 44.3558 63.1791 45.6003 63.1791C46.8447 63.1791 47.9336 62.7124 48.8669 61.7791L68.7003 41.9457C69.6336 41.0124 70.0808 39.9235 70.0419 38.6791C70.003 37.4346 69.5558 36.3457 68.7003 35.4124C67.7669 34.4791 66.6586 33.993 65.3753 33.9541C64.0919 33.9152 62.9836 34.3624 62.0503 35.2957L45.6003 51.7457Z" fill="#D65E62"/>
</svg>
