<svg width="59" height="55" viewBox="0 0 59 55" fill="none" xmlns="http://www.w3.org/2000/svg">
<mask id="mask0_970_1600" style="mask-type:luminance" maskUnits="userSpaceOnUse" x="0" y="0" width="59" height="55">
<path d="M0.835938 0.295345H58.519V54.4612H0.835938V0.295345Z" fill="white"/>
</mask>
<g mask="url(#mask0_970_1600)">
<path d="M13.2291 32.2444L3.85562 17.8026C2.66027 16.1226 1.96289 14.1041 1.96289 11.9322C1.96289 6.08927 7.00678 1.35293 13.2291 1.35293C19.4514 1.35293 24.4953 6.08927 24.4953 11.9322C24.4953 14.1041 23.7979 16.1226 22.6026 17.8026L13.2291 32.2444Z" stroke="white" stroke-width="2" stroke-miterlimit="10" stroke-linecap="round" stroke-linejoin="round"/>
<path d="M17.7356 11.9321C17.7356 14.2691 15.7178 16.1638 13.2291 16.1638C10.7404 16.1638 8.72266 14.2691 8.72266 11.9321C8.72266 9.59515 10.7404 7.70041 13.2291 7.70041C15.7178 7.70041 17.7356 9.59515 17.7356 11.9321Z" stroke="white" stroke-width="2" stroke-miterlimit="10" stroke-linecap="round" stroke-linejoin="round"/>
<path d="M46.1263 49.1711C47.3712 49.1711 48.3795 50.119 48.3795 51.287C48.3795 52.456 47.3712 53.4028 46.1263 53.4028C44.8814 53.4028 43.873 52.456 43.873 51.287C43.873 50.119 44.8814 49.1711 46.1263 49.1711Z" stroke="white" stroke-width="2" stroke-miterlimit="10" stroke-linecap="round" stroke-linejoin="round"/>
<path d="M46.1266 49.1711L36.7531 35.3641C35.5577 33.6842 34.8604 31.6656 34.8604 29.4937C34.8604 23.6508 39.9042 18.9144 46.1266 18.9144C52.3489 18.9144 57.3928 23.6508 57.3928 29.4937C57.3928 31.6656 56.6954 33.6842 55.5001 35.3641L46.1266 49.1711Z" stroke="white" stroke-width="2" stroke-miterlimit="10" stroke-linecap="round" stroke-linejoin="round"/>
<path d="M50.6331 29.4936C50.6331 31.8306 48.6153 33.7253 46.1266 33.7253C43.6379 33.7253 41.6201 31.8306 41.6201 29.4936C41.6201 27.1567 43.6379 25.2619 46.1266 25.2619C48.6153 25.2619 50.6331 27.1567 50.6331 29.4936Z" stroke="white" stroke-width="2" stroke-miterlimit="10" stroke-linecap="round" stroke-linejoin="round"/>
<path d="M15.4821 34.3602C15.4821 35.5292 14.4737 36.4761 13.2288 36.4761C11.9839 36.4761 10.9756 35.5292 10.9756 34.3602C10.9756 33.1923 11.9839 32.2444 13.2288 32.2444C14.4737 32.2444 15.4821 33.1923 15.4821 34.3602Z" stroke="white" stroke-width="2" stroke-miterlimit="10" stroke-linecap="round" stroke-linejoin="round"/>
<path d="M29.1146 51.287C29.1146 51.8713 28.6102 52.345 27.9879 52.345C27.3657 52.345 26.8613 51.8713 26.8613 51.287C26.8613 50.7028 27.3657 50.2291 27.9879 50.2291C28.6102 50.2291 29.1146 50.7028 29.1146 51.287Z" fill="white"/>
<path d="M15.4825 34.36H25.1715C27.6602 34.36 29.6779 36.2548 29.6779 38.5917C29.6779 40.9287 27.6602 42.8235 25.1715 42.8235H11.652C9.16329 42.8235 7.14551 44.7182 7.14551 47.0552C7.14551 49.3921 9.16329 51.2869 11.652 51.2869H22.9182" stroke="white" stroke-width="2" stroke-miterlimit="10" stroke-linecap="round" stroke-linejoin="round"/>
<path d="M33.0576 51.2871H43.8732" stroke="white" stroke-width="2" stroke-miterlimit="10" stroke-linecap="round" stroke-linejoin="round"/>
</g>
</svg>
