<svg width="21" height="27" viewBox="0 0 21 27" fill="none" xmlns="http://www.w3.org/2000/svg">
<path fill-rule="evenodd" clip-rule="evenodd" d="M10.5417 0.503052C7.22494 0.503052 4.51236 3.18801 4.45714 6.49183C4.45226 6.52594 4.45064 6.56005 4.45064 6.59416V7.68406C4.3818 7.68829 4.30848 7.69094 4.23475 7.69361L4.23472 7.69361C4.11013 7.69812 3.9844 7.70268 3.87726 7.71492C2.9238 7.82212 2.08404 8.05602 1.46519 8.67488C0.844705 9.29374 0.610807 10.1335 0.501979 11.0886C0.399287 12.0035 0.399437 13.1017 0.399631 14.5289L0.399649 14.7189V19.6437C0.393151 19.6941 0.389903 19.7444 0.389903 19.7948L0.389898 19.9233C0.389809 21.3805 0.389741 22.4971 0.495482 23.4251C0.602686 24.3802 0.836584 25.2183 1.45706 25.8372C2.07592 26.4577 2.91568 26.6899 3.86914 26.7971C4.79676 26.9013 5.9113 26.9012 7.36604 26.9011L7.49619 26.9011H7.50594H13.5873C13.5969 26.9011 13.6064 26.9007 13.6161 26.9003L13.6162 26.9003C13.6263 26.8999 13.6367 26.8995 13.6474 26.8995H13.7139C15.1662 26.8995 16.288 26.8995 17.2144 26.7955C18.1678 26.6883 19.0059 26.456 19.6264 25.8356C20.2469 25.2167 20.4808 24.3786 20.588 23.4235C20.6936 22.4841 20.6936 21.3492 20.6936 19.8665V19.7997V19.7932V14.7238V14.7221V14.7189L20.6936 14.5905C20.6937 13.1332 20.6938 12.0166 20.588 11.0886C20.4808 10.1335 20.2469 9.29374 19.6264 8.67488C19.0059 8.05602 18.1678 7.82212 17.2144 7.71492C17.1087 7.70307 16.9857 7.69783 16.8635 7.69262C16.7846 7.68926 16.7061 7.68591 16.6329 7.68081V6.59416C16.6329 6.5568 16.6312 6.51782 16.6264 6.48046C16.5646 3.18151 13.8537 0.503052 10.5417 0.503052ZM10.5421 2.53344C12.795 2.53344 14.6029 4.34291 14.6029 6.59418V7.61749C14.4505 7.61749 14.3063 7.61634 14.1579 7.61515C14.001 7.6139 13.8395 7.61261 13.6592 7.61261L13.6549 7.61233L13.6549 7.61233C13.6321 7.6108 13.6106 7.60937 13.5877 7.60937H7.50634C7.48825 7.60937 7.47016 7.61076 7.45077 7.61226L7.45075 7.61227L7.44624 7.61261C7.26162 7.61261 7.09633 7.6139 6.93579 7.61516H6.93574H6.9357C6.78413 7.61634 6.63679 7.61749 6.48141 7.61749V6.59418C6.48141 4.34291 8.28925 2.53344 10.5421 2.53344ZM13.5159 9.63964H7.5564L7.55478 9.64127C7.54666 9.64127 7.53854 9.64167 7.53042 9.64208C7.52229 9.64248 7.51417 9.64289 7.50605 9.64289C5.98734 9.64289 4.8617 9.64939 4.10478 9.73385C3.34786 9.81831 3.04411 9.96775 2.89955 10.1107C2.75661 10.2536 2.60718 10.559 2.52109 11.3159C2.43663 12.0728 2.43013 13.1985 2.43013 14.7188V19.7947C2.43013 19.8418 2.4285 19.8889 2.42201 19.9377C2.42201 21.3752 2.4285 22.4667 2.51134 23.196C2.59743 23.9546 2.74687 24.2583 2.8898 24.4029C3.03437 24.5458 3.33811 24.6936 4.09503 24.7797C4.85195 24.8642 5.97759 24.8707 7.4963 24.8707H7.50605H13.5354C13.5444 24.8698 13.5529 24.8694 13.5614 24.869C13.5699 24.8686 13.5785 24.8682 13.5874 24.8674C15.1045 24.8674 16.2301 24.8642 16.9871 24.7797C17.744 24.6936 18.0494 24.5442 18.1939 24.3996C18.3369 24.2567 18.4863 23.9513 18.5724 23.1944C18.6568 22.4391 18.6633 21.3151 18.6633 19.7996V14.7237V14.7204V14.7188C18.6633 13.1985 18.6568 12.0728 18.5724 11.3159C18.4863 10.559 18.3369 10.2536 18.1939 10.1107C18.0494 9.96613 17.744 9.81831 16.9871 9.73385C16.2301 9.64939 15.1045 9.64289 13.5874 9.64289C13.5645 9.64289 13.543 9.64145 13.5202 9.63993L13.5159 9.63964Z" fill="#0557A3"/>
<path fill-rule="evenodd" clip-rule="evenodd" d="M10.5451 13.7004C10.0058 13.7004 9.4893 13.9148 9.10759 14.2949C8.72588 14.6766 8.51147 15.1948 8.51147 15.7341C8.51147 16.0914 8.60568 16.4422 8.78436 16.7509C8.96465 17.0595 9.22129 17.3161 9.52991 17.4948V19.7948C9.52828 19.9296 9.55265 20.0628 9.603 20.1879C9.65335 20.3129 9.72807 20.4266 9.82228 20.5225C9.91649 20.6183 10.0302 20.6947 10.1536 20.7466C10.2787 20.7986 10.4119 20.8246 10.5451 20.8246C10.6799 20.8246 10.8131 20.7986 10.9382 20.7466C11.0616 20.6947 11.1737 20.6183 11.2679 20.5225C11.3637 20.4266 11.4368 20.3129 11.4872 20.1879C11.5375 20.0628 11.5635 19.9296 11.5603 19.7948V17.4932C11.8705 17.3145 12.1272 17.0579 12.3058 16.7492C12.4845 16.4406 12.5787 16.0914 12.5803 15.7341C12.5803 15.1948 12.3659 14.6766 11.9842 14.2949C11.6025 13.9148 11.086 13.7004 10.5451 13.7004Z" fill="#0557A3"/>
</svg>
