<svg width="90" height="84" viewBox="0 0 90 84" fill="none" xmlns="http://www.w3.org/2000/svg">
<g clip-path="url(#clip0_970_1685)">
<path d="M20.2407 83.1124C20.2604 83.1279 20.2867 83.1202 20.3064 83.1357C20.4611 83.2388 20.6347 83.2958 20.8121 83.3017C20.9098 83.3015 21.007 83.2858 21.1012 83.255L44.8971 75.5631L68.6931 83.255C68.7872 83.2858 68.8844 83.3015 68.9821 83.3017C69.159 83.2945 69.3318 83.2367 69.4857 83.1331C69.5076 83.1202 69.5317 83.1253 69.5514 83.1098L89.2573 68.8463C89.4611 68.6986 89.6185 68.4759 89.7055 68.2123C89.7925 67.9487 89.8042 67.6586 89.739 67.3863L78.8263 22.0026C78.7813 21.8139 78.7007 21.6397 78.5906 21.4932C78.4806 21.3467 78.3439 21.2316 78.1909 21.1568C78.0378 21.0819 77.8725 21.0491 77.7072 21.0608C77.5419 21.0725 77.3811 21.1285 77.2367 21.2246L66.3722 28.4445C66.1342 28.6224 65.9631 28.9018 65.8942 29.2249C65.8253 29.548 65.8639 29.8902 66.0019 30.1806C66.14 30.471 66.367 30.6875 66.636 30.7852C66.905 30.883 67.1954 30.8546 67.4472 30.7059L77.1009 24.2873L87.4071 67.1451L69.8579 79.8499L65.689 40.3506C65.653 40.0091 65.504 39.6985 65.2746 39.4872C65.0453 39.2759 64.7545 39.1811 64.4662 39.2237C64.1779 39.2664 63.9156 39.4429 63.7372 39.7146C63.5588 39.9862 63.4788 40.3306 63.5148 40.6721L67.6903 80.2441L45.9919 73.2291V66.1492C45.9919 65.8053 45.8766 65.4755 45.6713 65.2323C45.4659 64.9892 45.1875 64.8526 44.8971 64.8526C44.6068 64.8526 44.3283 64.9892 44.123 65.2323C43.9177 65.4755 43.8024 65.8053 43.8024 66.1492V73.2291L22.1018 80.2441L26.2773 40.6721C26.2951 40.503 26.2846 40.3314 26.2464 40.1671C26.2083 40.0028 26.1432 39.8491 26.0548 39.7146C25.9665 39.5801 25.8567 39.4675 25.7316 39.3833C25.6065 39.2991 25.4687 39.2449 25.3259 39.2237C25.1831 39.2026 25.0383 39.215 24.8995 39.2602C24.7608 39.3054 24.631 39.3825 24.5174 39.4872C24.4039 39.5918 24.3088 39.7219 24.2377 39.8701C24.1666 40.0182 24.1209 40.1815 24.103 40.3506L19.9363 79.8499L2.38714 67.1477L12.6933 24.2925L22.347 30.7111C22.5988 30.8598 22.8893 30.8882 23.1583 30.7904C23.4273 30.6926 23.6543 30.4762 23.7923 30.1858C23.9304 29.8954 23.969 29.5532 23.9 29.2301C23.8311 28.907 23.66 28.6276 23.4221 28.4497L12.5554 21.2272C12.4114 21.1295 12.2505 21.0723 12.085 21.0597C11.9195 21.0472 11.7538 21.0798 11.6005 21.1549C11.4473 21.23 11.3106 21.3457 11.2009 21.4931C11.0913 21.6405 11.0116 21.8156 10.968 22.0052L0.0552748 67.3889C-0.0099763 67.6611 0.00178326 67.9512 0.0887586 68.2149C0.175734 68.4785 0.333148 68.7012 0.536974 68.8489L20.2407 83.1124Z" fill="white"/>
<path d="M44.2745 56.0787C44.4432 56.2632 44.6642 56.3662 44.8938 56.3674C45.1234 56.3686 45.3451 56.268 45.5152 56.0853C46.1272 55.4256 60.5208 39.7817 60.5208 23.7111C60.5208 13.3333 53.6595 5.20654 44.8976 5.20654C36.1358 5.20654 29.2744 13.3333 29.2744 23.7111C29.2744 39.503 43.6624 55.4082 44.2745 56.0787ZM44.8976 7.38355C52.7551 7.38355 58.6828 14.4022 58.6828 23.7111C58.6828 36.9843 47.6675 50.5687 44.9031 53.7689C42.1442 50.5317 31.1124 36.7687 31.1124 23.7111C31.1124 14.4022 37.0401 7.38355 44.8976 7.38355Z" fill="white"/>
<path d="M53.1674 23.7111C53.1674 18.3099 49.4566 13.9146 44.8967 13.9146C40.3368 13.9146 36.626 18.3099 36.626 23.7111C36.626 29.1122 40.3368 33.5076 44.8967 33.5076C49.4566 33.5076 53.1674 29.1122 53.1674 23.7111ZM44.8967 31.3306C41.3495 31.3306 38.4639 27.9127 38.4639 23.7111C38.4639 19.5094 41.3495 16.0916 44.8967 16.0916C48.4439 16.0916 51.3294 19.5094 51.3294 23.7111C51.3294 27.9127 48.4439 31.3306 44.8967 31.3306Z" fill="white"/>
</g>
<defs>
<clipPath id="clip0_970_1685">
<rect width="89.7713" height="82.9873" fill="white" transform="translate(0.0117188 0.314453)"/>
</clipPath>
</defs>
</svg>
