<svg width="41" height="41" viewBox="0 0 41 41" fill="none" xmlns="http://www.w3.org/2000/svg">
<ellipse cx="20.7002" cy="20.5288" rx="20.2432" ry="20" fill="#41AEFF"/>
<path d="M18.1932 23.0152V20.8152H22.0432C22.5712 20.8152 23.0332 20.7126 23.4292 20.5072C23.8399 20.2872 24.1625 19.9866 24.3972 19.6052C24.6319 19.2092 24.7492 18.7472 24.7492 18.2192C24.7492 17.6912 24.6319 17.2366 24.3972 16.8552C24.1625 16.4592 23.8399 16.1586 23.4292 15.9532C23.0332 15.7332 22.5712 15.6232 22.0432 15.6232H18.1932V13.4232H22.1752C23.1432 13.4232 24.0085 13.6212 24.7712 14.0172C25.5485 14.4132 26.1572 14.9706 26.5972 15.6892C27.0519 16.4079 27.2792 17.2512 27.2792 18.2192C27.2792 19.1872 27.0519 20.0306 26.5972 20.7492C26.1572 21.4679 25.5485 22.0252 24.7712 22.4212C24.0085 22.8172 23.1432 23.0152 22.1752 23.0152H18.1932ZM16.4552 28.8232V13.4232H18.9852V28.8232H16.4552Z" fill="white"/>
</svg>
